<svg width="48" height="48" viewBox="0 0 48 48" fill="none" xmlns="http://www.w3.org/2000/svg">
<g style="mix-blend-mode:lighten">
<rect width="35.5862" height="35.5862" transform="translate(5.79309 5.79309)" fill="#C74340"/>
<path d="M29.0805 15.4681C29.0805 15.7739 29.0596 16.0797 29.0214 16.3821C29.0388 16.2604 29.0561 16.1353 29.07 16.0137C28.9866 16.6184 28.8268 17.2057 28.5939 17.7687C28.6391 17.6575 28.6878 17.5463 28.7329 17.4351C28.5001 17.9841 28.2012 18.4985 27.8363 18.9711L28.0553 18.6896C27.6938 19.1553 27.2733 19.5758 26.8077 19.9372L27.0892 19.7183C26.6165 20.0797 26.1022 20.382 25.5531 20.6149C25.6643 20.5697 25.7755 20.521 25.8867 20.4759C25.3238 20.7087 24.7364 20.8686 24.1318 20.952C24.2534 20.9346 24.3785 20.9172 24.5001 20.9033C23.892 20.9832 23.2803 20.9832 22.6722 20.9033C22.7938 20.9207 22.9189 20.9381 23.0405 20.952C22.4358 20.8686 21.8485 20.7087 21.2855 20.4759C21.3968 20.521 21.508 20.5697 21.6192 20.6149C21.0701 20.382 20.5558 20.0832 20.0831 19.7183L20.3646 19.9372C19.8989 19.5758 19.4784 19.1553 19.117 18.6896L19.336 18.9711C18.9745 18.4985 18.6722 17.9841 18.4393 17.4351C18.4845 17.5463 18.5332 17.6575 18.5784 17.7687C18.3455 17.2057 18.1857 16.6184 18.1023 16.0137C18.1196 16.1353 18.137 16.2604 18.1509 16.3821C18.071 15.7739 18.071 15.1623 18.1509 14.5541C18.1335 14.6757 18.1162 14.8008 18.1023 14.9225C18.1857 14.3178 18.3455 13.7305 18.5784 13.1675C18.5332 13.2787 18.4845 13.3899 18.4393 13.5011C18.6722 12.952 18.9711 12.4377 19.336 11.9651L19.117 12.2466C19.4784 11.7809 19.8989 11.3604 20.3646 10.999L20.0831 11.2179C20.5558 10.8565 21.0701 10.5541 21.6192 10.3213C21.508 10.3665 21.3968 10.4151 21.2855 10.4603C21.8485 10.2275 22.4358 10.0676 23.0405 9.98419C22.9189 10.0016 22.7938 10.0189 22.6722 10.0328C23.2803 9.95291 23.892 9.95291 24.5001 10.0328C24.3785 10.0155 24.2534 9.99809 24.1318 9.98419C24.7364 10.0676 25.3238 10.2275 25.8867 10.4603C25.7755 10.4151 25.6643 10.3665 25.5531 10.3213C26.1022 10.5541 26.6165 10.853 27.0892 11.2179L26.8077 10.999C27.2733 11.3604 27.6938 11.7809 28.0553 12.2466L27.8363 11.9651C28.1978 12.4377 28.5001 12.952 28.7329 13.5011C28.6878 13.3899 28.6391 13.2787 28.5939 13.1675C28.8268 13.7305 28.9866 14.3178 29.07 14.9225C29.0527 14.8008 29.0353 14.6757 29.0214 14.5541C29.0596 14.8564 29.077 15.1623 29.0805 15.4681C29.0839 16.1944 29.7164 16.8929 30.4705 16.8582C31.2212 16.8234 31.8641 16.2465 31.8606 15.4681C31.8537 13.8034 31.3532 12.1006 30.3732 10.7453C30.1091 10.3804 29.8276 10.0224 29.5149 9.69922C29.1986 9.37255 28.8511 9.09106 28.4897 8.81651C27.8329 8.31608 27.0996 7.94771 26.3211 7.66274C23.183 6.51245 19.3985 7.53764 17.2752 10.1232C16.9832 10.4777 16.7052 10.846 16.4689 11.2422C16.2326 11.6349 16.0484 12.0519 15.8781 12.4759C15.5584 13.2613 15.3951 14.0954 15.329 14.9398C15.2004 16.594 15.6314 18.3212 16.4932 19.7391C17.3238 21.1084 18.5784 22.283 20.0449 22.9467C20.4758 23.1414 20.9172 23.3221 21.3759 23.4506C21.8312 23.5758 22.2934 23.6453 22.7625 23.7009C23.6174 23.8016 24.4897 23.7321 25.3342 23.5619C28.5418 22.9085 31.2281 20.1457 31.7251 16.9033C31.7981 16.4307 31.8537 15.9581 31.8537 15.4785C31.8572 14.7522 31.2108 14.0537 30.4636 14.0884C29.7129 14.1127 29.0805 14.6896 29.0805 15.4681ZM33.6921 37.1986H15.8607C15.0719 37.1986 14.283 37.2056 13.4941 37.1986C13.4072 37.1986 13.3204 37.1917 13.237 37.1812C13.3586 37.1986 13.4837 37.216 13.6053 37.2299C13.4663 37.209 13.3343 37.1708 13.2057 37.1187C13.3169 37.1639 13.4281 37.2125 13.5393 37.2577C13.4003 37.1986 13.2717 37.1221 13.1501 37.0283L13.4316 37.2473C13.3273 37.1604 13.23 37.0665 13.1466 36.9623L13.3655 37.2438C13.2717 37.1221 13.1987 36.9936 13.1362 36.8546C13.1813 36.9658 13.23 37.077 13.2752 37.1882C13.2231 37.0596 13.1883 36.9241 13.164 36.7885C13.1813 36.9102 13.1987 37.0353 13.2126 37.1569C13.157 36.7364 13.1952 36.2916 13.1952 35.8676V34.3802C13.1952 34.0084 13.2161 33.64 13.2648 33.2716C13.2474 33.3932 13.23 33.5183 13.2161 33.64C13.3134 32.9276 13.5011 32.229 13.7826 31.5653C13.7374 31.6765 13.6887 31.7877 13.6436 31.8989C13.9146 31.2664 14.2621 30.6721 14.6826 30.1265L14.4637 30.408C14.8842 29.8694 15.3673 29.3828 15.9094 28.9623L15.6279 29.1813C16.1735 28.7608 16.7678 28.4133 17.4003 28.1422C17.2891 28.1874 17.1778 28.236 17.0666 28.2812C17.7304 28.0032 18.4254 27.812 19.1413 27.7147C19.0197 27.7321 18.8946 27.7495 18.773 27.7634C19.2873 27.6974 19.7982 27.6939 20.316 27.6939H26.6756C27.249 27.6939 27.819 27.6904 28.3924 27.7634C28.2707 27.746 28.1456 27.7286 28.024 27.7147C28.7364 27.812 29.4349 27.9997 30.0987 28.2812C29.9875 28.236 29.8763 28.1874 29.7651 28.1422C30.3976 28.4133 30.9918 28.7608 31.5374 29.1813L31.2559 28.9623C31.7946 29.3828 32.2811 29.8659 32.7016 30.408L32.4827 30.1265C32.9032 30.6721 33.2507 31.2664 33.5218 31.8989C33.4766 31.7877 33.428 31.6765 33.3828 31.5653C33.6608 32.229 33.8519 32.9241 33.9492 33.64C33.9319 33.5183 33.9145 33.3932 33.9006 33.2716C33.9666 33.7964 33.9701 34.3176 33.9701 34.8459V36.5661C33.9701 36.7642 33.977 36.9623 33.9527 37.1569C33.9701 37.0353 33.9875 36.9102 34.0014 36.7885C33.9805 36.9275 33.9423 37.0596 33.8902 37.1882C33.9353 37.077 33.984 36.9658 34.0292 36.8546C33.9701 36.9936 33.8936 37.1221 33.7998 37.2438L34.0187 36.9623C33.9319 37.0665 33.838 37.1639 33.7338 37.2473L34.0153 37.0283C33.8936 37.1221 33.765 37.1951 33.626 37.2577C33.7372 37.2125 33.8485 37.1639 33.9597 37.1187C33.8311 37.1708 33.6955 37.2056 33.56 37.2299C33.6816 37.2125 33.8067 37.1951 33.9284 37.1812C33.8519 37.1917 33.772 37.1951 33.6921 37.1986C33.3341 37.2021 32.9657 37.3515 32.7086 37.6052C32.4688 37.845 32.2846 38.2412 32.302 38.5887C32.3367 39.3324 32.9136 39.9892 33.6921 39.9788C35.0439 39.9579 36.2324 39.0752 36.6286 37.779C36.785 37.2646 36.7503 36.7121 36.7503 36.1838C36.7503 34.9745 36.7885 33.7755 36.58 32.5766C36.2742 30.8216 35.3914 29.1709 34.1821 27.8746C32.9727 26.5783 31.3463 25.6261 29.6261 25.2022C28.6391 24.9589 27.6452 24.9207 26.6374 24.9207H20.4723C19.4402 24.9207 18.415 24.9693 17.4107 25.2369C15.7044 25.6887 14.0988 26.6513 12.9138 27.958C11.7183 29.2751 10.853 30.9293 10.5715 32.6947C10.3838 33.8798 10.422 35.0683 10.422 36.2638C10.422 36.8129 10.3907 37.3863 10.5888 37.911C10.846 38.5852 11.2561 39.1169 11.8573 39.5166C12.3264 39.8259 12.9207 39.9753 13.4767 39.9823C13.7478 39.9857 14.0189 39.9823 14.2899 39.9823H33.6955C34.4219 39.9823 35.1204 39.3428 35.0856 38.5922C35.0509 37.8346 34.474 37.1986 33.6921 37.1986Z" fill="#F5E2C8"/>
</g>
<g style="mix-blend-mode:lighten">
<rect x="2.5" y="2.5" width="43" height="43" rx="21.5" stroke="#F5E2C8" stroke-width="5"/>
</g>
</svg>
