<svg width="34" height="33" viewBox="0 0 34 33" fill="none" xmlns="http://www.w3.org/2000/svg">
<g clip-path="url(#clip0_125_367)">
<rect width="34" height="33" rx="16.5" fill="white"/>
<path fill-rule="evenodd" clip-rule="evenodd" d="M100 0H0V100H100V0ZM17.1089 13.5966C15.3989 13.5966 14.0131 14.9416 14.0131 16.6003C14.0131 18.259 15.3989 19.604 17.1089 19.604C18.8189 19.604 20.2055 18.259 20.2055 16.6003C20.2055 14.9416 18.8189 13.5966 17.1089 13.5966ZM17.1089 21.227C14.4746 21.227 12.3392 19.1556 12.3392 16.6003C12.3392 14.045 14.4746 11.9736 17.1089 11.9736C19.7433 11.9736 21.8787 14.045 21.8787 16.6003C21.8787 19.1556 19.7433 21.227 17.1089 21.227ZM21.1404 12.3909C21.018 12.2131 20.9527 12.004 20.9528 11.7902C20.9531 11.5035 21.0706 11.2287 21.2796 11.0261C21.4886 10.8234 21.772 10.7095 22.0675 10.7094H22.0679C22.2884 10.7095 22.5039 10.773 22.6871 10.8918C22.8704 11.0107 23.0132 11.1796 23.0975 11.3772C23.1818 11.5748 23.2037 11.7922 23.1607 12.002C23.1176 12.2117 23.0113 12.4043 22.8554 12.5555C22.6994 12.7066 22.5008 12.8095 22.2845 12.8512C22.0683 12.8928 21.8442 12.8713 21.6405 12.7894C21.4369 12.7075 21.2628 12.5688 21.1404 12.3909ZM11.6312 23.6245C11.9583 23.7481 12.4506 23.8945 13.3562 23.9345C14.335 23.9782 14.6283 23.9869 17.1089 23.9869C19.5895 23.9869 19.8836 23.9782 20.8628 23.9345C21.7684 23.8945 22.2608 23.7482 22.5877 23.6245C23.0214 23.4608 23.3313 23.2654 23.6562 22.9506C23.9811 22.6357 24.1822 22.3355 24.351 21.9149C24.4777 21.5976 24.6293 21.1201 24.6705 20.2416C24.7156 19.2911 24.7246 19.0066 24.7246 16.6004C24.7246 14.1942 24.7156 13.9097 24.6705 12.9591C24.6294 12.0807 24.4785 11.603 24.351 11.2859C24.1822 10.8652 23.9815 10.5646 23.6562 10.2495C23.3309 9.93434 23.0214 9.73856 22.5877 9.57551C22.2598 9.45297 21.7684 9.30556 20.8628 9.26556C19.8828 9.2226 19.5884 9.21315 17.1089 9.21315C14.6294 9.21315 14.3353 9.22188 13.3562 9.26556C12.4506 9.30549 11.9582 9.45182 11.6312 9.57551C11.1968 9.73856 10.8876 9.93391 10.5628 10.2495C10.2379 10.5651 10.0368 10.8652 9.86795 11.2859C9.74162 11.604 9.58965 12.0807 9.54841 12.9591C9.50412 13.9097 9.49438 14.1942 9.49438 16.6004C9.49438 19.0066 9.50338 19.2919 9.54841 20.2416C9.58958 21.1201 9.74043 21.5977 9.86795 21.9149C10.036 22.3355 10.2374 22.6354 10.5628 22.9506C10.8881 23.2657 11.1975 23.4608 11.6312 23.6245ZM11.0246 8.06308C11.6147 7.84034 12.2904 7.68825 13.2793 7.64457C14.2702 7.60016 14.5871 7.59 17.1097 7.59C19.6322 7.59 19.9489 7.60088 20.9393 7.64457C21.9274 7.68753 22.6028 7.84034 23.194 8.06308C23.804 8.29309 24.3225 8.60088 24.8387 9.10236C25.3549 9.60384 25.6723 10.106 25.9101 10.6985C26.1398 11.2709 26.2965 11.9263 26.3416 12.8855C26.3866 13.8463 26.3971 14.1534 26.3971 16.6003C26.3971 19.0472 26.3866 19.3536 26.3416 20.3151C26.2973 21.2743 26.1398 21.9294 25.9101 22.5021C25.6723 23.0946 25.3557 23.5976 24.8387 24.0983C24.3217 24.5989 23.804 24.9069 23.1932 25.1375C22.6028 25.3603 21.9275 25.5124 20.9386 25.556C19.9481 25.6005 19.6315 25.6106 17.1089 25.6106C14.5863 25.6106 14.2702 25.5997 13.2793 25.556C12.2904 25.5124 11.6158 25.3603 11.0246 25.1375C10.4135 24.9069 9.89604 24.5987 9.37913 24.0983C8.86222 23.5978 8.54483 23.0946 8.30771 22.5021C8.07808 21.9294 7.92129 21.2743 7.87625 20.3151C7.83048 19.3544 7.82 19.0472 7.82 16.6003C7.82 14.1534 7.83048 13.8463 7.87625 12.8855C7.92129 11.9263 8.07808 11.2713 8.30771 10.6985C8.54483 10.1057 8.86214 9.60305 9.37913 9.10236C9.89611 8.60168 10.4135 8.29309 11.0246 8.06308Z" fill="url(#paint0_linear_125_367)"/>
</g>
<defs>
<linearGradient id="paint0_linear_125_367" x1="98.078" y1="100" x2="-1.922" y2="-2.69172e-06" gradientUnits="userSpaceOnUse">
<stop stop-color="#FBE18A"/>
<stop offset="0.21" stop-color="#FCBB45"/>
<stop offset="0.38" stop-color="#F75274"/>
<stop offset="0.52" stop-color="#D53692"/>
<stop offset="0.74" stop-color="#8F39CE"/>
<stop offset="1" stop-color="#5B4FE9"/>
</linearGradient>
<clipPath id="clip0_125_367">
<rect width="34" height="33" rx="16.5" fill="white"/>
</clipPath>
</defs>
</svg>
