<svg width="34" height="33" viewBox="0 0 34 33" fill="none" xmlns="http://www.w3.org/2000/svg">
<g clip-path="url(#clip0_125_351)">
<rect width="34" height="33" rx="16.5" fill="white"/>
<path fill-rule="evenodd" clip-rule="evenodd" d="M100 0H0V100H100V0ZM7.82 8.88164C7.82 8.1687 8.43496 7.59 9.19302 7.59H25.0248C25.7832 7.59 26.3978 8.1687 26.3978 8.88164V24.33C26.3978 25.0432 25.7832 25.6214 25.0248 25.6214H9.19302C8.43503 25.6214 7.82 25.0432 7.82 24.3302V8.88164ZM13.4655 22.68V14.5622H10.6855V22.68H13.4655ZM12.0761 13.454C13.0453 13.454 13.6487 12.8307 13.6487 12.0516C13.6306 11.2549 13.0453 10.6489 12.0945 10.6489C11.143 10.6489 10.5216 11.2549 10.5216 12.0516C10.5216 12.8306 11.1248 13.4539 12.0578 13.4539L12.0761 13.454ZM15.0042 22.68H17.784V18.1471C17.784 17.9048 17.8022 17.6619 17.8756 17.4888C18.0765 17.0039 18.5339 16.5019 19.302 16.5019C20.3077 16.5019 20.7102 17.2462 20.7102 18.3376V22.68H23.49V18.0255C23.49 15.5321 22.1187 14.3719 20.2897 14.3719C18.8151 14.3719 18.1538 15.1585 17.7842 15.7115V14.5624H15.0044C15.0407 15.324 15.0042 22.68 15.0042 22.68Z" fill="#006699"/>
</g>
<defs>
<clipPath id="clip0_125_351">
<rect width="34" height="33" rx="16.5" fill="white"/>
</clipPath>
</defs>
</svg>
