<svg width="244" height="95" viewBox="0 0 244 95" fill="none" xmlns="http://www.w3.org/2000/svg">
<path d="M10.9709 0.0341793C11.1814 -0.0123446 11.3998 0.00212937 11.6145 0.00212937C33.1489 0.00161244 54.6833 0.00212937 76.2178 0.00212937C80.7869 0.00523097 85.3566 -0.00510775 89.9258 0.00729861C90.1045 0.0832876 90.3115 0.0253911 90.5029 0.04917C90.7296 0.0812197 90.9647 0.0765676 91.1843 0.140667C91.7248 0.174268 92.2377 0.335551 92.7649 0.431183C93.6611 0.698954 94.5573 0.996189 95.3569 1.44178C96.3233 1.92356 97.1805 2.5506 97.9417 3.25053C98.0659 3.41595 98.2609 3.52864 98.3886 3.69199C98.6814 4.0435 99.0119 4.37434 99.2578 4.75325C99.4066 4.9838 99.5896 5.19678 99.7173 5.43715C99.9465 5.86724 100.198 6.28854 100.356 6.74395C100.446 6.93677 100.527 7.13372 100.575 7.33791C100.666 7.69718 100.814 8.04766 100.843 8.41726C100.861 8.57958 100.917 8.73673 100.94 8.89904C101.035 9.94221 100.986 10.9916 100.997 12.0389C100.997 33.5955 100.997 55.152 100.997 76.7086C100.991 76.9335 101.009 77.1594 100.989 77.3848C100.931 77.6644 100.993 77.9523 100.915 78.231C100.872 78.3333 100.87 78.4434 100.847 78.5504C100.823 78.9728 100.636 79.3703 100.549 79.7833C100.5 79.8846 100.459 79.9885 100.426 80.0956C100.335 80.3214 100.23 80.5432 100.14 80.7696C100.028 81.0296 99.8625 81.2685 99.7269 81.5192C99.5998 81.8159 99.3604 82.0614 99.1889 82.339C97.904 84.0997 95.9598 85.4846 93.7253 86.2693C93.4188 86.3654 93.1123 86.4595 92.8063 86.5562C92.6468 86.5939 92.4866 86.6306 92.3246 86.657C92.2437 86.6756 92.1645 86.6952 92.0865 86.7174C91.9221 86.7474 91.7572 86.7733 91.6 86.8234C91.2077 86.8482 90.8244 86.9258 90.4345 86.964C90.1543 86.9676 89.8742 86.9609 89.5971 86.9981C64.4227 87.0007 39.2483 86.9987 14.0745 86.9992C13.1718 86.995 12.2684 87.0064 11.3662 86.994C10.9619 86.933 10.5408 87.0121 10.1449 86.9035C9.47481 86.8565 8.82876 86.6952 8.18091 86.551C7.90857 86.4652 7.63443 86.384 7.3645 86.293C6.95119 86.1886 6.58648 85.9844 6.19657 85.8314C3.99208 84.8265 2.1715 83.1997 1.12114 81.2488C0.868599 80.8513 0.719234 80.415 0.535076 79.9932C0.491886 79.8722 0.460694 79.7492 0.410305 79.6319C0.392909 79.5605 0.376713 79.4907 0.363516 79.4215C0.341921 79.3527 0.320326 79.2845 0.291533 79.2199C0.212951 78.9045 0.136768 78.5882 0.109175 78.2666C0.0977774 78.1834 0.0881797 78.1007 0.0431901 78.0273C0.0425902 77.7936 0.0341921 77.5615 0 77.3305C0.000599861 54.7736 -0.000599733 32.2168 0.000599989 9.65996C0.0635854 9.41339 -0.00659816 9.15337 0.0785821 8.913C0.136169 8.51547 0.183558 8.11175 0.322126 7.7287C0.355118 7.60774 0.382112 7.48523 0.415704 7.36478C0.445097 7.29655 0.465492 7.22625 0.484088 7.15543C0.588464 6.81735 0.761823 6.49634 0.889594 6.16395C1.09115 5.83105 1.23991 5.4754 1.46246 5.1518C1.70301 4.85456 1.87997 4.52166 2.1403 4.2358C2.33166 4.02179 2.51462 3.80209 2.70837 3.58911C2.95132 3.38544 3.15227 3.1492 3.40421 2.95277C3.64176 2.72635 3.92789 2.54543 4.17323 2.32625C4.54515 2.0926 4.89967 1.83723 5.28958 1.62529C5.69568 1.42731 6.07419 1.18797 6.5055 1.02978C6.80483 0.930017 7.07836 0.781657 7.38669 0.699982C7.66023 0.598664 7.94936 0.531979 8.2235 0.430144C8.38666 0.404814 8.54982 0.373281 8.70759 0.327791C9.44841 0.170132 10.206 0.0455518 10.9709 0.0341793ZM49.3986 7.68477C48.0885 7.70131 46.7856 7.83468 45.4857 7.97477C45.3651 8.01406 45.2355 8.01354 45.1108 8.03163C44.5301 8.0916 43.9596 8.20739 43.3832 8.2901C42.6183 8.43949 41.8481 8.57286 41.0977 8.77033C40.0857 8.99261 39.0965 9.28312 38.1158 9.59277C37.1374 9.9541 36.1356 10.272 35.1933 10.7026C34.7817 10.9078 34.3498 11.0815 33.9257 11.2666C32.3349 12.0565 30.8053 12.9523 29.4454 14.0193C28.9973 14.3356 28.6164 14.7166 28.1959 15.0598C27.9301 15.3297 27.6446 15.584 27.3855 15.859C25.836 17.462 24.6399 19.338 24.064 21.3711C24.04 21.4419 24.0178 21.5127 23.9932 21.5835C23.9321 21.9707 23.8013 22.3496 23.7881 22.742C23.8331 23.0071 23.8229 23.277 23.8733 23.5422C23.9243 23.6843 23.9219 23.8358 23.959 23.981C24.1084 24.3786 24.1948 24.7911 24.3298 25.1922C24.3999 25.4522 24.4671 25.7138 24.5577 25.9692C24.5937 26.1067 24.6135 26.2488 24.6765 26.3806C24.7095 26.5011 24.7359 26.6231 24.7701 26.744C24.83 26.8785 24.8516 27.0222 24.8906 27.1622C24.917 27.2294 24.9398 27.2987 24.9626 27.368C24.9764 27.4378 24.9938 27.5081 25.0106 27.5784C25.037 27.6456 25.0598 27.7143 25.0844 27.7831C25.0982 27.8513 25.1144 27.9201 25.1312 27.9893C25.2188 28.2235 25.2643 28.4675 25.3477 28.7032C25.4599 29.1018 25.5679 29.5029 25.698 29.8973C25.734 30.0348 25.7544 30.1775 25.8162 30.3093C25.8498 30.4298 25.8762 30.5513 25.9104 30.6722C25.9692 30.8071 25.9938 30.9503 26.0304 31.0904C26.0568 31.1581 26.0796 31.2274 26.1024 31.2967C26.1287 31.4378 26.1743 31.5758 26.2241 31.7123C26.2385 31.7805 26.2553 31.8493 26.2709 31.918C26.4353 32.4122 26.5511 32.9178 26.7178 33.4109C26.7526 33.55 26.7742 33.6926 26.8378 33.826C26.8756 33.9635 26.8942 34.1057 26.9566 34.2385C26.9896 34.3585 27.0177 34.4799 27.0507 34.6009C27.1083 34.7363 27.1353 34.8785 27.1713 35.0191C27.1971 35.0868 27.2199 35.1556 27.2433 35.2248C27.2571 35.2941 27.2739 35.3634 27.2907 35.4332C27.3165 35.5014 27.3393 35.5707 27.3639 35.6404C27.5036 36.1853 27.683 36.7224 27.8246 37.2667C30.1202 37.261 32.4153 37.2662 34.711 37.2646C47.9109 37.2667 61.1109 37.26 74.3108 37.2677C74.3894 37.0718 74.4458 36.8707 74.492 36.6681C74.6959 36.0369 74.8549 35.3934 75.0576 34.7611C75.072 34.6919 75.0888 34.6231 75.105 34.5544C75.1284 34.4856 75.1512 34.4169 75.1782 34.3497C75.1938 34.2788 75.2106 34.2085 75.2268 34.1388C75.2484 34.0695 75.2706 34.0002 75.2994 33.9335C75.3156 33.8638 75.3336 33.7945 75.3474 33.7252C75.3671 33.6534 75.39 33.582 75.4199 33.5133C75.4745 33.2522 75.5795 33.0015 75.6311 32.7399C75.8374 32.1088 75.994 31.4642 76.1986 30.8319C76.2136 30.7632 76.2298 30.6944 76.2453 30.6262C76.2681 30.5569 76.2909 30.4882 76.3185 30.4205C76.3341 30.3502 76.3509 30.2799 76.3671 30.2101C76.3881 30.1403 76.4103 30.071 76.4385 30.0043C76.4769 29.8637 76.4985 29.719 76.5603 29.5841C76.6143 29.323 76.7198 29.0728 76.7714 28.8118C76.8614 28.5564 76.9298 28.2943 77 28.0338C77.1247 27.6601 77.2117 27.277 77.3389 26.9033C77.3533 26.8345 77.3701 26.7658 77.3857 26.697C77.4079 26.6283 77.4307 26.5595 77.4583 26.4918C77.4745 26.4215 77.4913 26.3512 77.5075 26.2814C77.5278 26.2116 77.5506 26.1429 77.5788 26.0757C77.616 25.9345 77.6394 25.7908 77.7 25.6554C77.7552 25.3949 77.8596 25.1447 77.9118 24.8836C77.9981 24.697 78.0065 24.4918 78.0923 24.3046C78.3359 23.9986 78.2615 23.6089 78.2747 23.2589C78.2453 22.728 78.0767 22.2126 77.9891 21.689C77.9082 21.4827 77.8734 21.2661 77.7954 21.0604C77.1325 18.9115 75.7517 16.9637 74.0349 15.3199C73.6282 14.9471 73.195 14.5956 72.7805 14.2286C71.6162 13.2992 70.3427 12.4674 68.9834 11.7582C68.3086 11.3751 67.5725 11.0841 66.8671 10.7466C66.5504 10.5827 66.2079 10.4628 65.8719 10.333C65.1317 10.0673 64.4095 9.76439 63.6507 9.54056C63.1096 9.38599 62.5715 9.22316 62.034 9.06084C61.9111 9.02931 61.7863 9.00191 61.6699 8.95694C59.523 8.4214 57.3239 8.0337 55.1014 7.83158C54.5406 7.80677 53.9869 7.71268 53.4236 7.72044C53.0667 7.66978 52.7026 7.72147 52.3499 7.65117C51.6294 7.646 50.909 7.65065 50.1886 7.6491C49.9246 7.65375 49.6571 7.62739 49.3986 7.68477ZM28.8527 42.236C28.2547 43.2461 27.7676 44.3011 27.2943 45.3577C27.0939 45.9077 26.8534 46.4469 26.686 47.0057C26.6758 47.0326 26.6548 47.0874 26.6446 47.1143C26.5966 47.3066 26.5109 47.4901 26.4671 47.6834C26.3693 47.8819 26.3465 48.0995 26.2775 48.3063C26.1989 48.601 26.1108 48.8941 26.0304 49.1887C25.998 49.3417 25.9722 49.4968 25.9368 49.6498C25.8408 49.8478 25.8864 50.0737 25.785 50.2707C25.7274 50.4914 25.7424 50.7235 25.6651 50.9411C25.6183 51.1753 25.6063 51.4141 25.5499 51.6478C25.4749 52.0665 25.4689 52.494 25.3771 52.9101C25.3873 53.1598 25.3297 53.4069 25.3369 53.6571C25.3435 53.8132 25.2685 53.9631 25.2901 54.1213C25.3123 54.3301 25.2326 54.5333 25.2476 54.7426C25.2542 55.4725 25.2422 56.203 25.2536 56.9329C25.3381 57.1365 25.2554 57.3573 25.3057 57.5666C25.3561 57.7434 25.3345 57.9269 25.3339 58.1078L25.3747 58.1626C25.3447 58.5312 25.4473 58.8936 25.4875 59.2585C25.5013 59.4684 25.5037 59.684 25.5721 59.8871C25.7191 60.9132 25.9398 61.9306 26.2229 62.935C26.2385 63.0027 26.2559 63.0709 26.2721 63.1402C26.3843 63.4658 26.4533 63.8034 26.5882 64.1239C26.8132 64.8765 27.1149 65.6121 27.4179 66.3441C27.4754 66.4832 27.5324 66.6238 27.6098 66.7577C27.6272 66.8083 27.6452 66.86 27.6632 66.9128C28.2121 68.0893 28.8293 69.2436 29.5534 70.3483C31.4093 73.2167 33.8814 75.7988 36.8777 77.8335C37.3462 78.1229 37.7841 78.4486 38.2777 78.7081C38.7858 79.0431 39.3533 79.2995 39.8938 79.5915C40.8464 80.0495 41.8205 80.4796 42.8379 80.8213C43.1402 80.917 43.433 81.0358 43.7425 81.1165C44.2596 81.2581 44.7617 81.4406 45.2949 81.5373C45.8258 81.6737 46.3663 81.7828 46.9122 81.866C47.464 81.9782 48.0291 82.0402 48.593 82.0961C48.7561 82.1581 48.9421 82.1193 49.1148 82.1504C49.4124 82.1602 49.7069 82.2046 50.0056 82.1927C50.6793 82.2785 51.3661 82.2191 52.0458 82.2362C52.3601 82.1726 52.684 82.2077 53.0025 82.169C53.7494 82.141 54.4854 82.0221 55.2238 81.9301C55.8543 81.8019 56.4973 81.7172 57.1152 81.5445C57.7192 81.421 58.3035 81.2369 58.8914 81.0674C59.4588 80.8632 60.0455 80.6947 60.5926 80.4496C61.6327 80.0599 62.6177 79.5672 63.5793 79.0498C65.2763 78.1028 66.8551 76.995 68.2486 75.7352C68.7033 75.3672 69.0962 74.9515 69.5089 74.5504C71.0943 72.9469 72.4398 71.1692 73.543 69.2917C73.7031 68.9546 73.9275 68.6434 74.0907 68.3085C74.3732 67.7228 74.6935 67.1505 74.9329 66.5499C75.1182 66.1611 75.2562 65.7579 75.4223 65.364C75.4787 65.1691 75.5759 64.9856 75.6359 64.7918C75.8021 64.278 75.9952 63.7693 76.126 63.2472C76.3677 62.4873 76.5207 61.7109 76.6982 60.9386C76.742 60.7427 76.7312 60.5364 76.805 60.3462C76.8296 60.1229 76.8812 59.9026 76.8962 59.6788C76.9826 59.3588 76.976 59.0233 77.0186 58.6972C77.1379 58.1451 77.0846 57.5728 77.1787 57.0161C77.1787 56.2758 77.1787 55.5351 77.1787 54.7948C77.1763 54.5834 77.1973 54.3699 77.1397 54.1637C77.1068 53.183 76.97 52.2081 76.826 51.2352C76.7492 50.9788 76.742 50.7137 76.6875 50.4552C76.5447 49.8411 76.4325 49.2202 76.243 48.6154C76.228 48.5462 76.21 48.4774 76.195 48.4097C76.1026 48.1352 76.0468 47.8524 75.9496 47.579C75.868 47.3944 75.8326 47.1985 75.7559 47.014C75.5105 46.2412 75.204 45.4828 74.8639 44.7374C74.6149 44.1445 74.312 43.5697 74.0121 42.9953C73.8465 42.7498 73.7589 42.4712 73.5772 42.2339C72.1579 42.2437 70.7386 42.2349 69.3193 42.238C55.8303 42.2365 42.3418 42.2411 28.8527 42.236Z" fill="#C74340"/>
<path d="M49.3985 7.68475C49.6571 7.62737 49.9246 7.65373 50.1886 7.64908C50.909 7.65063 51.6294 7.64598 52.3499 7.65114C52.7026 7.72145 53.0667 7.66975 53.4236 7.72041C53.9869 7.71266 54.5406 7.80674 55.1014 7.83155C57.3239 8.03367 59.523 8.42137 61.6699 8.95691C61.7863 9.00189 61.9111 9.02929 62.034 9.06082C62.5715 9.22313 63.1096 9.38597 63.6507 9.54053C64.4095 9.76436 65.1317 10.0673 65.8719 10.333C66.2079 10.4627 66.5504 10.5827 66.8671 10.7465C67.5725 11.0841 68.3086 11.3751 68.9834 11.7582C70.3427 12.4674 71.6162 13.2991 72.7805 14.2286C73.195 14.5956 73.6281 14.9471 74.0348 15.3198C75.7516 16.9637 77.1325 18.9115 77.7954 21.0604C77.8734 21.2661 77.9082 21.4827 77.9891 21.6889C78.0767 22.2126 78.2453 22.728 78.2747 23.2589C78.2615 23.6088 78.3359 23.9986 78.0923 24.3046C78.0065 24.4917 77.9981 24.697 77.9118 24.8836C77.8596 25.1446 77.7552 25.3948 77.7 25.6554C77.6394 25.7908 77.616 25.9345 77.5788 26.0756C77.5506 26.1428 77.5278 26.2116 77.5075 26.2814C77.4913 26.3512 77.4745 26.4215 77.4583 26.4918C77.4307 26.5595 77.4079 26.6282 77.3857 26.697C77.3701 26.7657 77.3533 26.8345 77.3389 26.9032C77.2117 27.277 77.1247 27.66 77 28.0338C76.9298 28.2943 76.8614 28.5564 76.7714 28.8117C76.7198 29.0728 76.6143 29.323 76.5603 29.584C76.4985 29.719 76.4769 29.8637 76.4385 30.0043C76.4103 30.071 76.3881 30.1403 76.3671 30.21C76.3509 30.2798 76.3341 30.3501 76.3185 30.4204C76.2909 30.4882 76.2681 30.5569 76.2453 30.6262C76.2297 30.6944 76.2136 30.7632 76.1986 30.8319C75.994 31.4641 75.8374 32.1087 75.6311 32.7399C75.5795 33.0015 75.4745 33.2522 75.4199 33.5132C75.3899 33.582 75.3671 33.6533 75.3473 33.7252C75.3335 33.7945 75.3156 33.8637 75.2994 33.9335C75.2706 34.0002 75.2484 34.0695 75.2268 34.1387C75.2106 34.2085 75.1938 34.2788 75.1782 34.3496C75.1512 34.4168 75.1284 34.4856 75.105 34.5543C75.0888 34.6231 75.072 34.6919 75.0576 34.7611C74.8549 35.3933 74.6959 36.0369 74.4919 36.6681C74.4458 36.8707 74.3894 37.0718 74.3108 37.2677C61.1108 37.26 47.9109 37.2667 34.711 37.2646C32.4153 37.2662 30.1202 37.261 27.8245 37.2667C27.683 36.7224 27.5036 36.1853 27.3639 35.6404C27.3393 35.5706 27.3165 35.5014 27.2907 35.4331C27.2739 35.3633 27.2571 35.2941 27.2433 35.2248C27.2199 35.1555 27.1971 35.0868 27.1713 35.0191C27.1353 34.8785 27.1083 34.7363 27.0507 34.6009C27.0177 34.4799 26.9895 34.3584 26.9566 34.2385C26.8942 34.1057 26.8756 33.9635 26.8378 33.826C26.7742 33.6926 26.7526 33.5499 26.7178 33.4109C26.551 32.9177 26.4353 32.4122 26.2709 31.918C26.2553 31.8492 26.2385 31.7805 26.2241 31.7123C26.1743 31.5758 26.1287 31.4378 26.1024 31.2966C26.0796 31.2274 26.0568 31.1581 26.0304 31.0904C25.9938 30.9503 25.9692 30.8071 25.9104 30.6722C25.8762 30.5512 25.8498 30.4297 25.8162 30.3093C25.7544 30.1775 25.734 30.0348 25.698 29.8973C25.5679 29.5029 25.4599 29.1017 25.3477 28.7032C25.2643 28.4675 25.2188 28.2235 25.1312 27.9893C25.1144 27.92 25.0982 27.8513 25.0844 27.7831C25.0598 27.7143 25.037 27.6456 25.0106 27.5784C24.9938 27.508 24.9764 27.4377 24.9626 27.368C24.9398 27.2987 24.917 27.2294 24.8906 27.1622C24.8516 27.0221 24.83 26.8784 24.7701 26.744C24.7359 26.6231 24.7095 26.5011 24.6765 26.3806C24.6135 26.2488 24.5937 26.1066 24.5577 25.9691C24.4671 25.7138 24.3999 25.4522 24.3298 25.1922C24.1948 24.7911 24.1084 24.3785 23.959 23.981C23.9219 23.8358 23.9243 23.6843 23.8733 23.5421C23.8229 23.277 23.8331 23.0071 23.7881 22.7419C23.8013 22.3496 23.9321 21.9707 23.9932 21.5835C24.0178 21.5127 24.04 21.4419 24.064 21.371C24.6399 19.3379 25.836 17.462 27.3855 15.859C27.6446 15.584 27.9301 15.3296 28.1959 15.0598C28.6164 14.7166 28.9973 14.3356 29.4454 14.0192C30.8053 12.9523 32.3349 12.0564 33.9257 11.2666C34.3498 11.0815 34.7817 10.9078 35.1932 10.7026C36.1356 10.272 37.1374 9.95408 38.1158 9.59274C39.0965 9.2831 40.0857 8.99258 41.0977 8.7703C41.8481 8.57283 42.6183 8.43947 43.3832 8.29007C43.9596 8.20736 44.5301 8.09157 45.1108 8.03161C45.2355 8.01351 45.3651 8.01403 45.4857 7.97474C46.7856 7.83466 48.0885 7.70129 49.3985 7.68475ZM48.0591 15.7163C48.0603 17.3679 48.0579 19.02 48.0603 20.6716C46.1461 20.6711 44.2325 20.6732 42.319 20.6706C42.322 22.6215 42.322 24.5724 42.319 26.5233C44.2325 26.5207 46.1467 26.5223 48.0609 26.5223C48.0573 28.1739 48.0609 29.8255 48.0591 31.477C50.3271 31.4755 52.5952 31.477 54.8633 31.476C54.8645 29.8239 54.8645 28.1718 54.8633 26.5197C56.7786 26.5248 58.694 26.5207 60.6094 26.5223C60.601 24.5719 60.604 22.6215 60.6082 20.6711C58.6928 20.6737 56.778 20.6701 54.8627 20.6732C54.8645 19.0211 54.8639 17.3695 54.8633 15.7179C52.5952 15.7168 50.3271 15.7194 48.0591 15.7163Z" fill="#F5E2C8"/>
<path d="M48.0589 15.7163C50.327 15.7194 52.5951 15.7169 54.8631 15.7179C54.8637 17.3695 54.8643 19.0211 54.8625 20.6732C56.7779 20.6701 58.6927 20.6737 60.608 20.6711C60.6038 22.6215 60.6008 24.5719 60.6092 26.5223C58.6939 26.5207 56.7785 26.5249 54.8631 26.5197C54.8643 28.1718 54.8643 29.8239 54.8631 31.476C52.5951 31.4771 50.327 31.4755 48.0589 31.4771C48.0607 29.8255 48.0571 28.1739 48.0607 26.5223C46.1466 26.5223 44.2324 26.5207 42.3188 26.5233C42.3218 24.5724 42.3218 22.6215 42.3188 20.6706C44.2324 20.6732 46.146 20.6711 48.0601 20.6716C48.0577 19.02 48.0601 17.3679 48.0589 15.7163Z" fill="#C74340"/>
<path d="M28.8531 42.236C42.3422 42.2411 55.8307 42.2365 69.3198 42.238C70.7391 42.2349 72.1583 42.2437 73.5776 42.2339C73.7594 42.4712 73.8469 42.7498 74.0125 42.9953C74.3124 43.5696 74.6154 44.1445 74.8643 44.7374C75.2044 45.4828 75.511 46.2411 75.7563 47.014C75.8331 47.1985 75.8685 47.3944 75.9501 47.579C76.0472 47.8524 76.103 48.1352 76.1954 48.4097C76.2104 48.4774 76.2284 48.5461 76.2434 48.6154C76.4329 49.2202 76.5451 49.8411 76.6879 50.4552C76.7425 50.7136 76.7497 50.9788 76.8264 51.2352C76.9704 52.2081 77.1072 53.183 77.1402 54.1636C77.1978 54.3699 77.1768 54.5834 77.1792 54.7948C77.1792 55.5351 77.1792 56.2758 77.1792 57.0161C77.085 57.5728 77.1384 58.145 77.019 58.6971C76.9764 59.0233 76.983 59.3588 76.8966 59.6788C76.8816 59.9026 76.8301 60.1228 76.8055 60.3461C76.7317 60.5364 76.7425 60.7426 76.6987 60.9385C76.5211 61.7108 76.3682 62.4873 76.1264 63.2472C75.9956 63.7693 75.8025 64.2779 75.6363 64.7918C75.5763 64.9856 75.4792 65.1691 75.4228 65.364C75.2566 65.7579 75.1187 66.1611 74.9333 66.5498C74.6939 67.1505 74.3736 67.7228 74.0911 68.3084C73.9279 68.6434 73.7036 68.9546 73.5434 69.2916C72.4403 71.1691 71.0948 72.9469 69.5094 74.5504C69.0966 74.9515 68.7037 75.3671 68.249 75.7352C66.8556 76.995 65.2767 78.1027 63.5797 79.0498C62.6181 79.5672 61.6332 80.0598 60.593 80.4496C60.0459 80.6946 59.4593 80.8632 58.8918 81.0674C58.3039 81.2369 57.7197 81.4209 57.1156 81.5445C56.4978 81.7171 55.8547 81.8019 55.2243 81.9301C54.4858 82.0221 53.7498 82.141 53.003 82.1689C52.6844 82.2077 52.3605 82.1726 52.0462 82.2361C51.3665 82.2191 50.6797 82.2785 50.0061 82.1927C49.7073 82.2046 49.4128 82.1601 49.1153 82.1503C48.9425 82.1193 48.7566 82.1581 48.5934 82.0961C48.0295 82.0402 47.4644 81.9782 46.9126 81.866C46.3667 81.7828 45.8262 81.6737 45.2954 81.5373C44.7621 81.4406 44.26 81.2581 43.7429 81.1165C43.4334 81.0358 43.1407 80.9169 42.8383 80.8213C41.821 80.4796 40.8468 80.0495 39.8942 79.5915C39.3537 79.2995 38.7863 79.043 38.2782 78.7081C37.7845 78.4486 37.3466 78.1229 36.8781 77.8334C33.8818 75.7988 31.4098 73.2167 29.5538 70.3483C28.8298 69.2436 28.2125 68.0893 27.6636 66.9127C27.6456 66.86 27.6276 66.8083 27.6102 66.7577C27.5329 66.6238 27.4759 66.4832 27.4183 66.3441C27.1154 65.6121 26.8136 64.8765 26.5887 64.1239C26.4537 63.8034 26.3847 63.4658 26.2726 63.1402C26.2564 63.0709 26.239 63.0027 26.2234 62.9349C25.9402 61.9305 25.7195 60.9132 25.5725 59.8871C25.5041 59.684 25.5017 59.4684 25.4879 59.2585C25.4477 58.8936 25.3452 58.5312 25.3752 58.1626L25.3344 58.1078C25.335 57.9269 25.3566 57.7434 25.3062 57.5666C25.2558 57.3572 25.3386 57.1365 25.254 56.9328C25.2426 56.2029 25.2546 55.4725 25.248 54.7426C25.233 54.5332 25.3128 54.3301 25.2906 54.1213C25.269 53.9631 25.344 53.8132 25.3374 53.657C25.3302 53.4068 25.3878 53.1598 25.3776 52.9101C25.4693 52.494 25.4753 52.0664 25.5503 51.6477C25.6067 51.4141 25.6187 51.1753 25.6655 50.9411C25.7429 50.7235 25.7279 50.4914 25.7855 50.2706C25.8868 50.0737 25.8412 49.8478 25.9372 49.6498C25.9726 49.4968 25.9984 49.3417 26.0308 49.1887C26.1112 48.894 26.1994 48.6009 26.2779 48.3063C26.3469 48.0995 26.3697 47.8819 26.4675 47.6834C26.5113 47.4901 26.5971 47.3065 26.6451 47.1142C26.6553 47.0874 26.6763 47.0326 26.6865 47.0057C26.8538 46.4469 27.0944 45.9077 27.2947 45.3577C27.768 44.3011 28.2551 43.246 28.8531 42.236Z" fill="#F5E2C8"/>
<path d="M114.368 12.32V29H111.632V17.576L106.544 29H104.648L99.536 17.576V29H96.8V12.32H99.752L105.608 25.4L111.44 12.32H114.368ZM131.284 12.32L125.764 22.952V29H123.028V22.952L117.484 12.32H120.532L124.396 20.504L128.26 12.32H131.284ZM102.248 37.32C104.024 37.32 105.576 37.664 106.904 38.352C108.248 39.024 109.28 40 110 41.28C110.736 42.544 111.104 44.024 111.104 45.72C111.104 47.416 110.736 48.888 110 50.136C109.28 51.384 108.248 52.344 106.904 53.016C105.576 53.672 104.024 54 102.248 54H96.8V37.32H102.248ZM102.248 51.768C104.2 51.768 105.696 51.24 106.736 50.184C107.776 49.128 108.296 47.64 108.296 45.72C108.296 43.784 107.776 42.272 106.736 41.184C105.696 40.096 104.2 39.552 102.248 39.552H99.536V51.768H102.248ZM122.384 54.168C120.832 54.168 119.4 53.808 118.088 53.088C116.792 52.352 115.76 51.336 114.992 50.04C114.24 48.728 113.864 47.256 113.864 45.624C113.864 43.992 114.24 42.528 114.992 41.232C115.76 39.936 116.792 38.928 118.088 38.208C119.4 37.472 120.832 37.104 122.384 37.104C123.952 37.104 125.384 37.472 126.68 38.208C127.992 38.928 129.024 39.936 129.776 41.232C130.528 42.528 130.904 43.992 130.904 45.624C130.904 47.256 130.528 48.728 129.776 50.04C129.024 51.336 127.992 52.352 126.68 53.088C125.384 53.808 123.952 54.168 122.384 54.168ZM122.384 51.792C123.488 51.792 124.472 51.544 125.336 51.048C126.2 50.536 126.872 49.816 127.352 48.888C127.848 47.944 128.096 46.856 128.096 45.624C128.096 44.392 127.848 43.312 127.352 42.384C126.872 41.456 126.2 40.744 125.336 40.248C124.472 39.752 123.488 39.504 122.384 39.504C121.28 39.504 120.296 39.752 119.432 40.248C118.568 40.744 117.888 41.456 117.392 42.384C116.912 43.312 116.672 44.392 116.672 45.624C116.672 46.856 116.912 47.944 117.392 48.888C117.888 49.816 118.568 50.536 119.432 51.048C120.296 51.544 121.28 51.792 122.384 51.792ZM133.644 45.624C133.644 43.992 134.02 42.528 134.772 41.232C135.54 39.936 136.572 38.928 137.868 38.208C139.18 37.472 140.612 37.104 142.164 37.104C143.94 37.104 145.516 37.544 146.892 38.424C148.284 39.288 149.292 40.52 149.916 42.12H146.628C146.196 41.24 145.596 40.584 144.828 40.152C144.06 39.72 143.172 39.504 142.164 39.504C141.06 39.504 140.076 39.752 139.212 40.248C138.348 40.744 137.668 41.456 137.172 42.384C136.692 43.312 136.452 44.392 136.452 45.624C136.452 46.856 136.692 47.936 137.172 48.864C137.668 49.792 138.348 50.512 139.212 51.024C140.076 51.52 141.06 51.768 142.164 51.768C143.172 51.768 144.06 51.552 144.828 51.12C145.596 50.688 146.196 50.032 146.628 49.152H149.916C149.292 50.752 148.284 51.984 146.892 52.848C145.516 53.712 143.94 54.144 142.164 54.144C140.596 54.144 139.164 53.784 137.868 53.064C136.572 52.328 135.54 51.312 134.772 50.016C134.02 48.72 133.644 47.256 133.644 45.624ZM164.854 37.32V39.552H160.414V54H157.678V39.552H153.214V37.32H164.854ZM176.193 54.168C174.641 54.168 173.209 53.808 171.897 53.088C170.601 52.352 169.569 51.336 168.801 50.04C168.049 48.728 167.673 47.256 167.673 45.624C167.673 43.992 168.049 42.528 168.801 41.232C169.569 39.936 170.601 38.928 171.897 38.208C173.209 37.472 174.641 37.104 176.193 37.104C177.761 37.104 179.193 37.472 180.489 38.208C181.801 38.928 182.833 39.936 183.585 41.232C184.337 42.528 184.713 43.992 184.713 45.624C184.713 47.256 184.337 48.728 183.585 50.04C182.833 51.336 181.801 52.352 180.489 53.088C179.193 53.808 177.761 54.168 176.193 54.168ZM176.193 51.792C177.297 51.792 178.281 51.544 179.145 51.048C180.009 50.536 180.681 49.816 181.161 48.888C181.657 47.944 181.905 46.856 181.905 45.624C181.905 44.392 181.657 43.312 181.161 42.384C180.681 41.456 180.009 40.744 179.145 40.248C178.281 39.752 177.297 39.504 176.193 39.504C175.089 39.504 174.105 39.752 173.241 40.248C172.377 40.744 171.697 41.456 171.201 42.384C170.721 43.312 170.481 44.392 170.481 45.624C170.481 46.856 170.721 47.944 171.201 48.888C171.697 49.816 172.377 50.536 173.241 51.048C174.105 51.544 175.089 51.792 176.193 51.792ZM197.03 54L193.19 47.328H191.102V54H188.366V37.32H194.126C195.406 37.32 196.486 37.544 197.366 37.992C198.262 38.44 198.926 39.04 199.358 39.792C199.806 40.544 200.03 41.384 200.03 42.312C200.03 43.4 199.71 44.392 199.07 45.288C198.446 46.168 197.478 46.768 196.166 47.088L200.294 54H197.03ZM191.102 45.144H194.126C195.15 45.144 195.918 44.888 196.43 44.376C196.958 43.864 197.222 43.176 197.222 42.312C197.222 41.448 196.966 40.776 196.454 40.296C195.942 39.8 195.166 39.552 194.126 39.552H191.102V45.144ZM105.464 79L101.624 72.328H99.536V79H96.8V62.32H102.56C103.84 62.32 104.92 62.544 105.8 62.992C106.696 63.44 107.36 64.04 107.792 64.792C108.24 65.544 108.464 66.384 108.464 67.312C108.464 68.4 108.144 69.392 107.504 70.288C106.88 71.168 105.912 71.768 104.6 72.088L108.728 79H105.464ZM99.536 70.144H102.56C103.584 70.144 104.352 69.888 104.864 69.376C105.392 68.864 105.656 68.176 105.656 67.312C105.656 66.448 105.4 65.776 104.888 65.296C104.376 64.8 103.6 64.552 102.56 64.552H99.536V70.144ZM122.98 75.592H115.996L114.796 79H111.94L117.916 62.296H121.084L127.06 79H124.18L122.98 75.592ZM122.212 73.36L119.5 65.608L116.764 73.36H122.212ZM136.066 62.32C137.842 62.32 139.394 62.664 140.722 63.352C142.066 64.024 143.098 65 143.818 66.28C144.554 67.544 144.922 69.024 144.922 70.72C144.922 72.416 144.554 73.888 143.818 75.136C143.098 76.384 142.066 77.344 140.722 78.016C139.394 78.672 137.842 79 136.066 79H130.618V62.32H136.066ZM136.066 76.768C138.018 76.768 139.514 76.24 140.554 75.184C141.594 74.128 142.114 72.64 142.114 70.72C142.114 68.784 141.594 67.272 140.554 66.184C139.514 65.096 138.018 64.552 136.066 64.552H133.354V76.768H136.066ZM158.65 75.592H151.666L150.466 79H147.61L153.586 62.296H156.754L162.73 79H159.85L158.65 75.592ZM157.882 73.36L155.17 65.608L152.434 73.36H157.882ZM174.952 79L171.112 72.328H169.024V79H166.288V62.32H172.048C173.328 62.32 174.408 62.544 175.288 62.992C176.184 63.44 176.848 64.04 177.28 64.792C177.728 65.544 177.952 66.384 177.952 67.312C177.952 68.4 177.632 69.392 176.992 70.288C176.368 71.168 175.4 71.768 174.088 72.088L178.216 79H174.952ZM169.024 70.144H172.048C173.072 70.144 173.84 69.888 174.352 69.376C174.88 68.864 175.144 68.176 175.144 67.312C175.144 66.448 174.888 65.776 174.376 65.296C173.864 64.8 173.088 64.552 172.048 64.552H169.024V70.144Z" fill="#F5E2C8"/>
</svg>
