<svg width="34" height="33" viewBox="0 0 34 33" fill="none" xmlns="http://www.w3.org/2000/svg">
<g clip-path="url(#clip0_125_359)">
<rect width="34" height="33" rx="16.5" fill="white"/>
<path fill-rule="evenodd" clip-rule="evenodd" d="M100 0H0V100H100V0ZM23.392 12.2021C23.9454 12.1215 24.4858 11.972 24.9998 11.7573C25.0407 11.7406 25.0578 11.7299 25.0649 11.7346C25.0701 11.7379 25.0701 11.7491 25.0701 11.7716C25.0747 11.8654 25.0431 11.9576 24.9814 12.0299C24.625 12.5153 24.198 12.9479 23.7136 13.3142C23.7008 13.3233 23.6863 13.3327 23.6712 13.3425C23.603 13.3866 23.5214 13.4394 23.5214 13.5187C23.5214 16.0658 22.8487 18.6092 20.9341 20.4532C18.4984 22.8029 14.8466 23.4415 11.6014 22.5733C10.9748 22.3994 10.3699 22.1587 9.79769 21.8558C9.60549 21.7554 9.42068 21.6514 9.23588 21.533C9.19522 21.4971 9.15826 21.4576 9.19522 21.4397C9.23218 21.4218 9.26544 21.4182 9.40959 21.4397C10.3235 21.5186 11.2442 21.4035 12.1078 21.1025C12.1464 21.0896 12.1888 21.0757 12.2341 21.0609C12.7441 20.8938 13.6329 20.6028 13.8671 20.1877L13.8893 20.1662C13.8089 20.1488 13.734 20.142 13.6612 20.1353C13.6134 20.1309 13.5665 20.1266 13.5197 20.1195C12.6548 19.8756 11.4757 19.4379 10.9324 18.003C10.8991 17.9204 10.9324 17.8738 11.0211 17.8917C11.4331 17.9459 11.8514 17.9338 12.2593 17.8559C12.116 17.8282 11.976 17.7862 11.8416 17.7303C11.2906 17.5141 10.8085 17.1597 10.4449 16.7033C10.0812 16.247 9.84893 15.7051 9.77181 15.133C9.76134 15.0137 9.76134 14.8936 9.77181 14.7743C9.77551 14.6882 9.81617 14.6631 9.89009 14.7097C10.2837 14.9043 10.7136 15.0202 11.1542 15.0505C11.0137 14.9429 10.8806 14.8281 10.7513 14.7097C9.79029 13.8236 9.41699 12.0299 10.1858 10.8963C10.2486 10.8102 10.2893 10.8102 10.3669 10.8963C12.1336 12.8443 14.2959 13.7519 16.9312 14.1285C16.9977 14.1393 16.9977 14.1285 16.9977 14.0532C16.9201 13.6129 16.9314 13.162 17.031 12.7259C17.1518 12.2673 17.3723 11.8392 17.6778 11.4703C17.9682 11.1119 18.3303 10.8141 18.7423 10.5949C19.1607 10.3871 19.6186 10.265 20.0877 10.2362C20.5711 10.2065 21.0552 10.2838 21.5033 10.4622C21.8353 10.605 22.1421 10.7974 22.4125 11.0326C22.4717 11.0852 22.5273 11.1416 22.5789 11.2012C22.5959 11.2178 22.6173 11.2296 22.6408 11.2353C22.6642 11.241 22.6888 11.2404 22.7119 11.2335C23.375 11.0729 24.0145 10.8319 24.6154 10.516C24.6285 10.5091 24.6431 10.5055 24.6579 10.5055C24.6728 10.5055 24.6874 10.5091 24.7004 10.516C24.7178 10.5281 24.7119 10.5482 24.7061 10.5678C24.7032 10.5773 24.7004 10.5867 24.7004 10.5949C24.5887 10.9331 24.4132 11.2481 24.183 11.5241C24.0315 11.707 23.6507 12.1591 23.392 12.2021Z" fill="#33CCFF"/>
</g>
<defs>
<clipPath id="clip0_125_359">
<rect width="34" height="33" rx="16.5" fill="white"/>
</clipPath>
</defs>
</svg>
