<svg width="33" height="33" viewBox="0 0 33 33" fill="none" xmlns="http://www.w3.org/2000/svg">
<g clip-path="url(#clip0_125_355)">
<rect width="33" height="33" rx="16.5" fill="white"/>
<path fill-rule="evenodd" clip-rule="evenodd" d="M100 0H0V100H100V0ZM25.348 11.961C25.1326 11.151 24.4952 10.512 23.6842 10.293C22.218 9.9 16.335 9.9 16.335 9.9C16.335 9.9 10.455 9.9 8.98575 10.293C8.17782 10.509 7.54044 11.148 7.322 11.961C6.93 13.431 6.93 16.5 6.93 16.5C6.93 16.5 6.93 19.569 7.322 21.039C7.53745 21.849 8.17482 22.488 8.98575 22.707C10.455 23.1 16.335 23.1 16.335 23.1C16.335 23.1 22.218 23.1 23.6842 22.707C24.4922 22.491 25.1296 21.852 25.348 21.039C25.74 19.569 25.74 16.5 25.74 16.5C25.74 16.5 25.74 13.431 25.348 11.961ZM14.4558 19.329L19.3423 16.5L14.4558 13.671V19.329Z" fill="#FF3000"/>
</g>
<defs>
<clipPath id="clip0_125_355">
<rect width="33" height="33" rx="16.5" fill="white"/>
</clipPath>
</defs>
</svg>
